<svg xmlns="http://www.w3.org/2000/svg">
  <defs>
       <rect id="SVGID_1_" x="167.658" y="66.594" width="675.217" height="891.69"/> 
  </defs>
    <symbol id="accounting" viewBox="0 0 1024 1024">
        <g> <path class="st0" d="M760.189,225.21H168.351v470.435h591.838V225.21L760.189,225.21z M722.251,657.707H206.289V263.148h515.961
		V657.707L722.251,657.707z M852,349.648v455.26H237.399v-73.6h37.938v35.662h538.725V387.586h-20.487v-37.938H852L852,349.648z
		 M445.301,525.757h-87.258v-37.938h87.258v-42.415h-87.258v-37.938h77.546l-69.807-69.806l26.86-26.86l71.628,71.628l71.628-71.628
		l26.86,26.86l-69.807,69.806h77.546v37.938h-87.258v42.415h87.258v37.938h-87.258v84.223h-37.938V525.757L445.301,525.757z"/> </g> 
    </symbol>
    <symbol id="ambition" viewBox="0 0 1024 1024">
        <g> <path class="st0" d="M509.202,64.254c-168.697-3.499-312.916,143.351-308.549,313.795c0,64.677,18.358,113.627,37.591,151.21
		c6.991,11.367,15.727,23.603,25.347,34.96c20.103,21.857,30.592,33.216,51.564,51.572l7.868,6.991
		c31.47,28.848,42.827,38.461,46.328,62.062v47.197c0,0.877,0,1.755,0.877,3.499h-0.877v81.289
		c0,84.787,55.941,142.473,140.729,142.473c83.032,0,138.973-57.686,138.973-142.473V735.54h-0.877v-0.877
		c0.877-0.868,0.877-1.745,0.877-2.622v-47.197c0-10.49,2.624-20.98,8.745-30.592c6.114-10.49,12.235-18.358,18.348-24.471
		c6.123-6.123,17.482-15.734,34.092-30.592l25.347-23.603c13.981-13.112,35.838-36.715,47.197-57.686
		c20.111-34.969,34.969-78.664,34.969-139.851C817.754,204.983,682.27,64.254,509.202,64.254L509.202,64.254z M508.325,903.363
		c-52.44,0-83.032-33.215-83.032-86.534v-37.583c23.602,7.867,51.572,12.234,83.91,12.234c34.092,0,62.063-5.245,83.912-13.112
		v38.46C593.113,871.893,561.643,903.363,508.325,903.363L508.325,903.363z M673.525,557.23l-5.245,4.368
		c-24.471,20.98-33.206,29.724-50.696,51.572c-17.48,20.98-24.471,43.704-24.471,71.675v34.96
		c-20.103,11.367-48.072,16.612-84.788,16.612c-47.196,0-71.665-8.744-83.032-15.734v-35.838c0-28.848-15.734-57.686-48.073-88.279
		c-4.368-3.499-10.49-8.744-18.358-16.612l-6.113-5.245l-24.481-22.725c-11.357-13.113-31.46-34.085-41.95-52.442
		c-16.612-30.592-29.725-69.054-29.725-121.494c0-71.675,24.481-132.86,73.421-182.688c48.95-49.818,108.39-75.165,179.188-75.165
		c138.974-3.499,255.232,118.872,252.61,257.854c0,48.073-10.49,83.912-27.102,111.005
		C717.23,517.024,698.004,536.25,673.525,557.23L673.525,557.23z"/> </g> 
    </symbol>
    <symbol id="archives" viewBox="0 0 1024 1024">
        <g> <path class="st0" d="M300.025,548.237c0,9.433,9.433,18.866,18.866,18.866h226.386c9.433,0,18.865-9.433,18.865-18.866
		s-9.433-18.865-18.865-18.865H318.89C309.458,529.371,300.025,538.804,300.025,548.237L300.025,548.237z M545.277,642.564H318.89
		c-9.433,0-18.866,7.546-18.866,18.865c0,9.433,9.433,18.866,18.866,18.866h226.386c9.433,0,18.865-9.433,18.865-18.866
		C564.142,650.11,554.709,642.564,545.277,642.564L545.277,642.564z M318.89,453.909h113.193c9.433,0,18.866-9.433,18.866-18.866
		c0-9.433-9.433-18.866-18.866-18.866H318.89c-9.433,0-18.866,9.433-18.866,18.866C300.025,444.476,309.458,453.909,318.89,453.909
		L318.89,453.909z"/> <path class="st0" d="M771.663,152.061H300.025c-9.433,0-18.866,9.433-18.866,18.866v94.328h-75.462
		c-9.433,0-18.866,9.433-18.866,18.866v528.235c0,9.433,9.433,18.866,18.866,18.866H658.47c11.319,0,18.866-7.546,18.866-18.866
		v-56.597h94.328c9.433,0,18.866-9.433,18.866-18.866V170.926C790.528,161.493,781.096,152.061,771.663,152.061L771.663,152.061z
		 M639.604,793.488H224.563V302.985h415.041V793.488L639.604,793.488z M658.47,265.254H318.89v-75.462h433.907v528.235h-75.462
		V284.119C677.335,274.687,667.902,265.254,658.47,265.254L658.47,265.254z"/> </g> 
    </symbol>
    <symbol id="bonus" viewBox="0 0 1024 1024">
        <g> <path class="st0" d="M617.154,664.589h223.998v-43.921H617.154V664.589L617.154,664.589z M617.154,770h223.998v-43.922H617.154V770
		L617.154,770z"/> <path class="st0" d="M748.917,857.842V655.805h-43.921v202.038H748.917L748.917,857.842z M599.585,537.218l114.196,105.411
		l26.353-30.745L630.33,502.08L599.585,537.218L599.585,537.218z"/> <path class="st0" d="M823.583,502.08L713.781,611.884l30.745,30.745l109.802-105.411L823.583,502.08L823.583,502.08z
		 M854.328,396.67V264.906c0-52.706-43.921-101.019-96.627-101.019H265.785c-52.706,0-96.627,43.921-96.627,101.019v496.309
		c0,52.705,43.921,101.019,96.627,101.019h228.39v-43.921h-228.39c-30.745,0-52.706-26.352-52.706-57.097V264.906
		c0-30.745,26.353-57.098,52.706-57.098h491.917c30.745,0,52.706,26.353,52.706,57.098v136.155h43.921V396.67L854.328,396.67z"/> <path class="st0" d="M287.745,387.886h215.213v-43.921H287.745V387.886L287.745,387.886z M287.745,532.825h215.213v-43.921H287.745
		V532.825L287.745,532.825z"/> </g> 
    </symbol>
    <symbol id="budget" viewBox="0 0 1024 1024">
        <g> <path class="st0" d="M510.662,589.279c10.92,0,19.771-8.851,19.771-19.771c0-10.919-8.851-19.77-19.771-19.77h-54.457
		l49.241-49.242c7.722-7.722,7.722-20.24,0-27.961c-7.72-7.721-20.241-7.721-27.959,0l-59.561,59.56
		c-0.904-0.126-1.819-0.214-2.758-0.214c-0.94,0-1.856,0.088-2.761,0.214l-59.56-59.56c-7.721-7.721-20.238-7.721-27.96,0
		c-7.722,7.722-7.722,20.24,0,27.961l49.241,49.242h-54.457c-10.919,0-19.771,8.851-19.771,19.77
		c0,10.92,8.852,19.771,19.771,19.771h75.727v42.114h-75.727c-10.919,0-19.771,8.851-19.771,19.771
		c0,10.918,8.852,19.771,19.771,19.771h75.727v71.71c0,10.92,8.852,19.772,19.771,19.772c10.92,0,19.771-8.853,19.771-19.772v-71.71
		h75.723c10.92,0,19.771-8.853,19.771-19.771c0-10.92-8.851-19.771-19.771-19.771H434.94v-42.114H510.662L510.662,589.279z"/> <path class="st0" d="M802.644,184.369H222.143c-21.267,0-38.57,17.377-38.57,38.736v580.241c0,21.358,17.302,38.733,38.57,38.733
		H620.51l220.704-228.31V223.105C841.214,201.746,823.911,184.369,802.644,184.369L802.644,184.369z M632.978,772.612V629.276
		h137.997L632.978,772.612L632.978,772.612z M801.672,589.734H613.206c-10.919,0-19.771,8.853-19.771,19.771v193.033h-370.32
		V223.911h578.557V589.734L801.672,589.734z"/> <path class="st0" d="M318.587,382.078H717.96c10.918,0,19.771-8.852,19.771-19.771c0-10.92-8.853-19.772-19.771-19.772H318.587
		c-10.919,0-19.771,8.852-19.771,19.772C298.816,373.227,307.668,382.078,318.587,382.078L318.587,382.078z M717.96,448.6H590.108
		c-10.919,0-19.77,8.852-19.77,19.771c0,10.92,8.851,19.771,19.77,19.771H717.96c10.918,0,19.771-8.851,19.771-19.771
		C737.731,457.453,728.878,448.6,717.96,448.6L717.96,448.6z"/> </g> 
    </symbol>
    <symbol id="business" viewBox="0 0 1024 1024">
        <g> <path class="st0" d="M748.503,206.495c29.125,0,52.768,23.524,52.768,52.498V503.95L511.337,801.406h8.221H308.206
		c-29.15,0-52.755-23.418-52.755-52.32v-542.59h-17.607H748.503L748.503,206.495z M220.237,171.5v17.498v560.088
		c0,48.243,39.384,87.315,87.969,87.315h211.352h7.383l5.175-5.233l299.321-302.685l5.049-5.105v-7.159V258.993
		c0-48.292-39.4-87.493-87.983-87.493h-510.66H220.237L220.237,171.5z"/> <path class="st0" d="M783.285,645.213l66.001,66l13.566,14.504l72.55-73.096l-94.592-95.138l-71.171,74.632L783.285,645.213
		L783.285,645.213z M886.855,650.152l-26.304,26.473l-44.142-42.57l25.437-27.631L886.855,650.152L886.855,650.152z"/> <path class="st0" d="M778.903,621.633L588.002,812.535l-3.716,3.715l-1.03,5.153L565.9,908.176l-5.105,25.527l25.527-5.105
		l86.773-17.355l5.153-1.03l3.715-3.716l190.902-190.902l12.271-12.271l-12.271-12.272l-69.419-69.418l-12.272-12.272
		L778.903,621.633L778.903,621.633L778.903,621.633L778.903,621.633z M790.966,658.832l45.175,44.582L660.343,877.207
		l-56.298,12.236l14.016-57.873L790.966,658.832L790.966,658.832z"/> <path class="st0" d="M318.931,463.407h402.644c9.725,0,17.608-7.26,17.608-16.217c0-8.956-7.883-16.216-17.608-16.216H318.931
		c-9.725,0-17.608,7.26-17.608,16.216C301.322,456.147,309.206,463.407,318.931,463.407L318.931,463.407L318.931,463.407
		L318.931,463.407z"/> <path class="st0" d="M318.931,349.888h402.644c9.725,0,17.608-7.261,17.608-16.217c0-8.956-7.883-16.217-17.608-16.217H318.931
		c-9.725,0-17.608,7.261-17.608,16.217C301.322,342.627,309.206,349.888,318.931,349.888L318.931,349.888L318.931,349.888
		L318.931,349.888z"/> </g> 
    </symbol>
    <symbol id="centripetal" viewBox="0 0 1024 1024">
        <g> <path class="st0" d="M271.423,721.098c-29.932,0-54.251-24.707-54.251-55.061V225.033l-18.09,18.373H796.15
		c29.886,0,54.177,24.703,54.177,55.061V739.47l18.09-18.372H542.795h-5.439l-4.537,3.046L377.979,828.098
		c-8.335,5.596-10.625,16.994-5.115,25.458c5.509,8.465,16.732,10.791,25.066,5.195l154.84-103.955l-9.976,3.046h325.622h18.09
		V739.47V298.466c0-50.642-40.478-91.807-90.357-91.807H199.082h-18.09v18.373v441.005c0,50.646,40.515,91.806,90.431,91.806h94.296
		c9.991,0,18.09-8.226,18.09-18.372c0-10.147-8.099-18.372-18.09-18.372H271.423L271.423,721.098z"/> <path class="st0" d="M434.254,482.251c0-40.588-32.397-73.491-72.361-73.491c-39.963,0-72.36,32.903-72.36,73.491
		c0,40.589,32.397,73.492,72.36,73.492C401.857,555.743,434.254,522.84,434.254,482.251L434.254,482.251z M325.713,482.251
		c0-20.294,16.199-36.745,36.18-36.745c19.982,0,36.181,16.451,36.181,36.745s-16.199,36.746-36.181,36.746
		C341.911,518.997,325.713,502.545,325.713,482.251L325.713,482.251z"/> <path class="st0" d="M615.155,482.251c0-40.588-32.397-73.491-72.36-73.491c-39.964,0-72.361,32.903-72.361,73.491
		c0,40.589,32.397,73.492,72.361,73.492C582.758,555.743,615.155,522.84,615.155,482.251L615.155,482.251z M506.614,482.251
		c0-20.294,16.199-36.745,36.181-36.745c19.981,0,36.18,16.451,36.18,36.745s-16.199,36.746-36.18,36.746
		C522.812,518.997,506.614,502.545,506.614,482.251L506.614,482.251z"/> <path class="st0" d="M796.056,482.251c0-40.588-32.397-73.491-72.36-73.491c-39.963,0-72.361,32.903-72.361,73.491
		c0,40.589,32.398,73.492,72.361,73.492C763.659,555.743,796.056,522.84,796.056,482.251L796.056,482.251z M687.516,482.251
		c0-20.294,16.198-36.745,36.18-36.745c19.981,0,36.18,16.451,36.18,36.745s-16.199,36.746-36.18,36.746
		C703.714,518.997,687.516,502.545,687.516,482.251L687.516,482.251z"/> </g> 
    </symbol>
    <symbol id="commendable" viewBox="0 0 1024 1024">
        <g> <path class="st0" d="M241.61,506.7h-5.983c-47.859-29.913-71.789-83.756-71.789-137.597V243.471
		c0-11.965,11.964-23.929,23.929-23.929h89.736v-47.859c0-11.967,11.967-23.931,29.913-23.931h412.79
		c17.948,0,29.913,11.965,29.913,23.931v47.859h83.755c11.967,0,23.931,11.965,23.931,23.929v125.632
		c0,53.843-23.931,107.685-71.791,137.597c0,0,0,0-5.983,0l-11.965,5.983l-5.984,5.983l0,0l0,0c-5.983,0-17.947,0-23.929,5.983
		c-11.965,35.896-29.912,77.772-59.825,107.685c-29.912,41.877-83.755,77.772-137.596,83.756v125.632
		c0,11.967,5.983,11.967,11.964,11.967h137.597c17.948,0,29.912,11.965,29.912,29.912c0,17.947-11.965,29.912-29.912,29.912H331.345
		c-17.948,0-29.912-11.965-29.912-29.912c0-17.947,11.965-29.912,29.912-29.912h137.597c11.964,0,11.964-5.984,11.964-11.967
		V716.089c-53.841-5.983-101.701-41.877-137.596-83.756c-23.931-29.912-47.86-71.789-53.843-107.685
		c-11.965-5.983-17.948-5.983-23.929-5.983c-5.983-5.983-17.948-5.983-23.929-11.964L241.61,506.7L241.61,506.7z M235.628,434.909
		l17.948,17.948c5.983,5.983,5.983,5.983,11.965,5.983c0,5.984,5.983,5.984,5.983,5.984V267.403h-53.841v101.701
		c0,23.929,5.983,47.859,17.948,65.807L235.628,434.909L235.628,434.909z M791.999,267.4h-41.877v197.421
		c5.983,0,5.983,0,11.967-5.983c0,0,0,0,5.983,0c0-5.983,5.983-5.983,5.983-11.965c23.929-17.948,35.896-47.859,35.896-77.772V267.4
		h-17.948H791.999L791.999,267.4z M510.822,189.63H319.384v245.28c0,65.808,23.929,125.632,59.825,167.509
		c35.895,41.876,77.771,65.807,131.615,65.807c53.841,0,101.701-23.929,131.614-65.807c35.896-41.877,59.825-101.701,59.825-167.509
		V189.63H510.825H510.822L510.822,189.63z M624.489,249.454L624.489,249.454c17.948,0,29.913,11.965,29.913,29.912v197.421
		c0,17.947-11.967,29.912-29.913,29.912l0,0c-11.965,0-29.912-11.965-29.912-29.912V279.366
		C594.577,261.418,612.525,249.454,624.489,249.454L624.489,249.454z"/> </g> 
    </symbol>
    <symbol id="contract" viewBox="0 0 1024 1024">
        <g> <path class="st0" d="M793.859,184.954H229.978c-25.836,0-46.99,21.155-46.99,46.99v563.882c0,25.835,21.155,46.991,46.99,46.991
		h563.881c25.835,0,46.99-21.155,46.99-46.991V231.944C840.849,206.108,819.695,184.954,793.859,184.954L793.859,184.954z
		 M793.859,795.826H229.978V231.944h563.881V795.826L793.859,795.826z"/> <polygon class="st0" points="417.939,325.926 699.878,325.926 699.878,372.916 417.939,372.916 417.939,325.926 	"/> <polygon class="st0" points="323.959,325.926 370.949,325.926 370.949,372.916 323.959,372.916 323.959,325.926 	"/> <polygon class="st0" points="417.939,419.906 699.878,419.906 699.878,466.896 417.939,466.896 417.939,419.906 	"/> <polygon class="st0" points="323.959,419.906 370.949,419.906 370.949,466.896 323.959,466.896 323.959,419.906 	"/> <polygon class="st0" points="417.939,560.874 699.878,560.874 699.878,607.865 417.939,607.865 417.939,560.874 	"/> <polygon class="st0" points="323.959,560.874 370.949,560.874 370.949,607.865 323.959,607.865 323.959,560.874 	"/> <polygon class="st0" points="417.939,654.856 699.878,654.856 699.878,701.844 417.939,701.844 417.939,654.856 	"/> <polygon class="st0" points="323.959,654.856 370.949,654.856 370.949,701.844 323.959,701.844 323.959,654.856 	"/> </g> 
    </symbol>
    <symbol id="down" viewBox="0 0 1024 1024">
        <g> <path class="st0" d="M559.962,807.118L921.27,445.863c26.565-26.565,26.565-69.692,0-96.268c-26.673-26.565-69.757-26.565-96.322,0
		l-313.04,312.977L198.75,349.595c-26.544-26.565-69.628-26.565-96.322,0c-26.554,26.577-26.554,69.703,0,96.268l361.318,361.255
		C490.323,833.726,533.396,833.726,559.962,807.118L559.962,807.118z"/> </g> 
    </symbol>
    <symbol id="follow" viewBox="0 0 1024 1024">
        <g> <path class="st0" d="M759.692,497.741h55.783c7.654,0,13.859,6.205,13.859,13.859c0,7.654-6.205,13.859-13.859,13.859h-55.783
		c-6.944,126.742-108.49,228.288-235.232,235.232v55.783c0,7.654-6.206,13.859-13.859,13.859c-7.655,0-13.859-6.205-13.859-13.859
		v-55.783c-126.742-6.943-228.289-108.49-235.232-235.232h-55.783c-7.654,0-13.859-6.206-13.859-13.859
		c0-7.655,6.205-13.859,13.859-13.859h55.783c6.943-126.742,108.49-228.289,235.232-235.232v-55.783
		c0-7.654,6.205-13.859,13.859-13.859c7.654,0,13.859,6.205,13.859,13.859v55.783C651.201,269.452,752.747,370.999,759.692,497.741
		L759.692,497.741z M801.643,802.643v-69.337c0-7.539,6.209-13.818,13.859-13.818c7.706,0,13.859,6.181,13.859,13.818v83.238
		c0,3.756-1.553,7.207-4.047,9.729c-2.57,2.628-6.095,4.102-9.771,4.088h-83.238c-7.539,0-13.818-6.209-13.818-13.859
		c0-7.706,6.181-13.859,13.818-13.859H801.643L801.643,802.643z M801.643,220.557h-69.337c-7.539,0-13.818-6.209-13.818-13.859
		c0-7.706,6.181-13.859,13.818-13.859h83.238c3.756,0,7.206,1.553,9.729,4.047c2.55,2.509,4.089,5.96,4.089,9.771v83.238
		c0,7.54-6.209,13.818-13.859,13.818c-7.705,0-13.859-6.181-13.859-13.818V220.557L801.643,220.557z M195.885,826.273
		c-2.585-2.579-4.041-6.078-4.047-9.729v-83.238c0-7.623,6.153-13.818,13.859-13.818c7.65,0,13.859,6.279,13.859,13.818v69.337
		h69.337c7.623,0,13.818,6.154,13.818,13.859c0,7.65-6.279,13.859-13.818,13.859h-83.238c-3.657,0.01-7.168-1.436-9.757-4.019
		L195.885,826.273L195.885,826.273z M195.927,196.885c2.579-2.584,6.078-4.041,9.729-4.047h83.238
		c7.623,0,13.818,6.153,13.818,13.859c0,7.65-6.279,13.859-13.818,13.859h-69.337v69.338c0,7.623-6.154,13.818-13.859,13.818
		c-7.65,0-13.859-6.279-13.859-13.818v-83.238c0-3.811,1.525-7.262,4.019-9.757L195.927,196.885L195.927,196.885z M510.6,733.347
		c122.473,0,221.747-99.274,221.747-221.747c0-122.474-99.274-221.747-221.747-221.747c-122.474,0-221.747,99.273-221.747,221.747
		C288.853,634.073,388.127,733.347,510.6,733.347L510.6,733.347z M510.6,608.615c-53.579,0-97.014-43.435-97.014-97.014
		s43.435-97.014,97.014-97.014s97.014,43.435,97.014,97.014S564.179,608.615,510.6,608.615L510.6,608.615z M510.6,580.896
		c24.758,0.002,47.638-13.205,60.018-34.646c12.38-21.441,12.38-47.859,0-69.3c-12.38-21.442-35.259-34.649-60.018-34.647
		c-38.268,0.004-69.289,31.028-69.289,69.296S472.331,580.893,510.6,580.896L510.6,580.896z"/> </g> 
    </symbol>
    <symbol id="fund" viewBox="0 0 1024 1024">
        <g> <path class="st0" d="M734.671,174.875H217.012v673.2h575.177c22.684,0,41.316-18.632,41.316-41.315V215.381
		C833.505,193.507,814.873,174.875,734.671,174.875L734.671,174.875z M258.328,805.949V215.381c0,0,0-0.81,0.81-0.81h46.986v590.569
		L258.328,805.949L258.328,805.949z M792.189,806.76l-445.559-0.81V215.381h446.37L792.189,806.76L792.189,806.76z"/> <path class="st0" d="M460.855,498.918h72.91v48.607h-72.91c-11.341,0-20.253,8.911-20.253,20.253
		c0,11.341,8.911,20.253,20.253,20.253h72.91v68.859c0,11.341,8.911,20.253,20.253,20.253s20.253-8.911,20.253-20.253V588.03h64.809
		c11.341,0,20.253-8.911,20.253-20.253c0-11.341-8.911-20.253-20.253-20.253H574.27v-48.607h64.809
		c11.341,0,20.253-8.911,20.253-20.253c0-11.341-8.911-20.253-20.253-20.253h-49.417l45.366-55.897
		c7.291-8.911,5.671-21.873-3.24-28.354c-8.911-7.291-21.873-5.671-28.354,3.24l-50.227,61.568L496.5,375.782
		c-7.291-8.101-20.253-8.911-28.354-1.62c-8.101,7.291-8.911,20.253-1.62,28.354l49.416,55.087h-55.087
		c-11.341,0-20.253,8.911-20.253,20.253C440.602,489.197,449.514,498.918,460.855,498.918L460.855,498.918z"/> </g> 
    </symbol>
    <symbol id="home" viewBox="0 0 1024 1024">
        <g> <polygon class="st0" points="508.874,66.961 69.516,487.526 89.846,526.312 508.874,126.896 927.682,526.238 948.233,487.307 
		508.874,66.961 	"/> <path class="st0" d="M788.786,466.194c-19.941,0-20.289,20.138-20.289,20.138s0,314.459,0,322.069
		c0,10.227-6.476,17.435-17.618,17.435c-12.075,0-107.164,0-124.588,0c-10.136,0-17.563-7.025-17.563-16.85
		c0-9.02-0.038-192.664-0.038-214.033c0-16.099-12.257-28.723-28.686-28.723c-12.075,0-120.125,0.036-142.042,0.036
		c-20.71,0-28.76,12.806-28.76,28.906c0,17.563,0,212.515,0,212.515c0.073,18.588-17.051,18.162-17.051,18.162
		s-108.306,0.014-125.413,0.014c-17.106,0-17.252-17.298-17.252-17.298V486.172c0,0-0.366-19.978-19.978-19.978
		s-19.96,20.398-19.96,20.398s-0.275,299.763-0.275,335.548c0,27.845,15.587,43.653,45.334,43.653c24.332,0,102.636,0,149.726,0
		c30.187,0,44.567-15.314,44.567-44.403c0-17.014,0.036-172.247,0.036-194.75c0-13.667,7.207-20.454,20.051-20.454
		s60.355,0,80.022,0c15.094,0,19.941,9.934,19.941,20.016c0,8.763-0.22,194.694-0.22,194.694c0,29.309,15.625,44.897,45.153,44.897
		c18.77,0,102.085,0,149.506,0c29.857,0,45.047-15.662,45.047-44.495c0-14.929,0-334.954,0-334.954S808.729,466.194,788.786,466.194
		L788.786,466.194z"/> </g> 
    </symbol>
    <symbol id="know" viewBox="0 0 1024 1024">
        <g> <path class="st0" d="M910.189,682.803L781.002,510.718c21.943-42.104,34.526-89.855,34.526-140.579
		c0-168.419-137.063-305.484-305.531-305.484c-168.419,0-305.482,137.065-305.482,305.484c0,51.02,12.73,99.071,34.923,141.373
		L110.842,682.803c-5.152,6.836-6.588,15.752-3.913,23.875c2.625,8.125,9.064,14.415,17.238,16.843l111.702,33.783l56.173,105.51
		c4.111,7.728,11.839,12.879,20.557,13.771c0.841,0.05,1.684,0.099,2.525,0.099c7.827,0,15.258-3.517,20.261-9.61l156.53-192.294
		c6.044,0.396,11.988,0.94,18.081,0.94c6.439,0,12.681-0.545,19.022-0.94l156.629,192.294c5.003,6.093,12.432,9.61,20.259,9.61
		c0.843,0,1.685-0.049,2.528-0.099c8.718-0.892,16.446-6.043,20.556-13.771l56.173-105.51l111.701-33.783
		c8.174-2.426,14.613-8.718,17.24-16.843C916.777,698.555,915.34,689.639,910.189,682.803L910.189,682.803z M319.732,803.47
		l-42.799-80.345c-3.27-6.142-8.867-10.699-15.504-12.731l-86.34-26.104l94.662-126.067
		c40.519,51.665,97.237,89.857,162.475,107.095L319.732,803.47L319.732,803.47z M257.614,370.139
		c0-139.095,113.237-252.331,252.381-252.331c139.193,0,252.43,113.236,252.43,252.331c0,139.193-113.237,252.429-252.43,252.429
		C370.851,622.569,257.614,509.332,257.614,370.139L257.614,370.139z M759.602,710.394c-6.638,2.032-12.235,6.589-15.504,12.731
		l-42.799,80.345L588.558,665.07c65.239-17.386,121.857-55.677,162.228-107.489l95.156,126.71L759.602,710.394L759.602,710.394z"/> </g> 
    </symbol>
    <symbol id="left" viewBox="0 0 1024 1024">
        <g> <path class="st0" d="M435.852,257.908c0,9.988-4.993,19.973-14.979,29.96L156.227,517.561l264.646,229.693
		c14.979,14.979,14.98,34.952,4.993,49.934c-14.979,14.98-34.952,14.98-49.932,4.993L81.328,542.527
		c-9.987-4.993-14.98-14.979-14.98-29.959c0-9.988,4.993-19.973,14.98-29.96l294.606-259.653
		c14.979-14.979,39.946-9.986,49.932,4.993c4.994,14.979,9.987,24.966,9.987,29.959l0,0L435.852,257.908L435.852,257.908z
		 M865.278,257.908c0,9.988-4.993,19.973-14.98,29.96L585.652,517.561l264.646,229.693c14.98,14.979,14.981,34.952,4.994,49.934
		c-14.98,14.98-34.952,14.98-49.934,4.993L510.753,542.527c-9.987-4.993-14.98-14.979-14.98-29.959
		c0-9.988,4.994-19.973,14.98-29.96l294.605-259.653c14.98-14.979,39.948-9.986,49.934,4.993c4.992,14.98,9.987,24.966,9.987,29.959
		l0,0L865.278,257.908L865.278,257.908z"/> </g> 
    </symbol>
    <symbol id="news" viewBox="0 0 1024 1024">
        <g> <path class="st0" d="M837.885,789.062h-653.77c-13.338,0-26.129-5.298-35.56-14.73c-9.431-9.431-14.73-22.223-14.73-35.56V286.162
		c0-27.775,22.516-50.29,50.29-50.29h653.77c13.338,0,26.13,5.299,35.564,14.73c9.429,9.432,14.726,22.223,14.726,35.561v452.611
		c0,13.338-5.297,26.129-14.726,35.56C864.015,783.764,851.223,789.062,837.885,789.062L837.885,789.062z M670.143,453.149
		l167.742,166.159V311.306c0-0.226-0.125-0.402-0.125-0.628L670.143,453.149L670.143,453.149z M184.115,713.627
		c0,13.887,11.258,25.145,25.145,25.145H812.74c13.887,0,25.145-11.258,25.145-25.145v-45.01h-21.323L634.764,488.554l5.96-5.959
		l-94.168,94.143c-19.639,19.632-51.472,19.632-71.111,0l-88.208-88.184L205.438,668.618h-21.323V713.627L184.115,713.627z
		 M184.115,619.309l167.742-166.159L184.24,310.678c0,0.226-0.126,0.402-0.126,0.628V619.309L184.115,619.309z M230.834,286.162
		l262.389,237.243c4.712,4.72,11.108,7.373,17.777,7.373c6.67,0,13.066-2.653,17.777-7.373l262.389-237.243H230.834L230.834,286.162
		z"/> </g> 
    </symbol>
    <symbol id="notice" viewBox="0 0 1024 1024">
        <g> <g>  <clipPath id="SVGID_2_"> <use xlink:href="#SVGID_1_" style="overflow:visible;"/> </clipPath> <path class="st0" d="M486.495,193.572v-0.119c-116.368,0-211.037,94.642-211.094,210.991c0,0.041-0.006,0.068-0.006,0.109
			c0,12.305,9.98,22.275,22.269,22.275c12.305,0,22.275-9.97,22.275-22.275c0-91.34,73.915-165.716,165.068-166.517
			c0.131,0,0.256,0.023,0.386,0.023c12.301,0,22.275-9.98,22.275-22.275C507.669,203.852,498.273,194.144,486.495,193.572
			L486.495,193.572z M486.495,193.572"/> <path class="st0" d="M842.981,404.591c0-186.146-151.237-337.616-337.293-338.025V66.56c-0.123,0-0.244,0-0.367,0.006
			c-0.125-0.006-0.244-0.006-0.369-0.006v0.006C318.901,66.97,167.658,218.445,167.658,404.591
			c0,120.565,67.114,232.188,179.536,298.61c2.401,1.418,7.973,5.242,9.958,6.78c5.515,5.611,9.623,12.073,12.697,19.257
			l50.961-6.536c-5.367-17.736-14.263-34.343-28.963-48.907c-4.851-4.812-17.527-12.777-19.161-13.742
			c-97.002-57.309-154.919-152.808-154.919-255.462c0-158.636,128.962-287.716,287.552-287.916
			c158.589,0.199,287.545,129.28,287.545,287.916c0,102.654-57.911,198.152-154.913,255.462c-1.634,0.97-14.331,8.947-19.155,13.742
			c-8.174,8.09-14.552,16.822-19.528,26.013l86.977-11.155C784.865,621.159,842.981,516.754,842.981,404.591L842.981,404.591z
			 M842.981,404.591"/> </g> <path d="M505.32,906.766c-16.006-0.074-30.87-5.044-43.183-13.474l-61.78,7.721c22.808,33.498,61.156,55.607,104.594,55.857v0.023
		c0.125,0,0.25-0.017,0.369-0.017c0.123,0,0.244,0.017,0.367,0.017v-0.023c54.621-0.312,101.207-35.177,118.949-83.885
		l-61.911,7.734C548.638,896.593,528.134,906.658,505.32,906.766L505.32,906.766z M505.32,906.766"/> <path d="M370.746,800.328l0.006,0.028l280.029-35.818v-0.028c1.361-0.131,2.735-0.375,4.096-0.767
		c11.807-3.421,18.61-15.766,15.2-27.585c-3.166-10.927-13.98-17.554-24.936-15.772l-0.006-0.035l-280.039,35.819l0.006,0.028
		c-1.124,0.148-2.247,0.346-3.371,0.675c-7.114,2.06-12.414,7.364-14.751,13.832c-1.554,4.267-1.804,9.05-0.449,13.747
		C349.629,795.147,360.04,801.707,370.746,800.328L370.746,800.328z M370.746,800.328"/> <path d="M679.143,812.612c-3.171-10.933-13.98-17.56-24.941-15.778l-0.004-0.035l-280.029,35.818v0.029
		c-1.124,0.147-2.253,0.351-3.371,0.67c-7.12,2.065-12.414,7.37-14.751,13.843c-1.548,4.267-1.81,9.05-0.447,13.747
		c3.097,10.694,13.508,17.254,24.214,15.87l0.006,0.028l280.029-35.818l-0.006-0.023c1.368-0.129,2.735-0.373,4.097-0.771
		C675.755,836.776,682.559,824.43,679.143,812.612L679.143,812.612z M679.143,812.612"/> </g> 
    </symbol>
    <symbol id="quit" viewBox="0 0 1024 1024">
        <g> <path class="st0" d="M753.136,196.042c28.035,19.935,52.955,42.52,74.757,67.746c21.804,25.233,40.493,52.487,56.067,81.767
		c15.576,29.279,27.412,60.273,35.51,92.979c8.098,32.705,12.146,65.877,12.146,99.518c0,57.935-11.056,112.288-33.171,163.062
		c-22.115,50.771-52.019,95.003-89.708,132.688c-37.692,37.694-81.923,67.594-132.692,89.71
		c-50.769,22.116-105.127,33.174-163.056,33.174c-57.314,0-111.36-11.059-162.129-33.174C300.085,901.394,255.7,871.493,217.7,833.8
		c-38.002-37.688-67.904-81.918-89.708-132.688c-21.805-50.774-32.706-105.127-32.706-163.064c0-33.014,3.892-65.41,11.681-97.18
		c7.789-31.771,18.844-61.985,33.171-90.644c14.331-28.654,32.086-55.442,53.266-80.358c21.18-24.922,44.851-47.35,71.019-67.284
		c13.707-9.968,28.5-13.705,44.388-11.214c15.881,2.496,28.809,10.28,38.778,23.361c9.97,13.086,13.706,27.724,11.216,43.922
		c-2.497,16.197-10.28,29.279-23.361,39.249c-39.249,28.654-69.309,63.849-90.18,105.591
		c-20.864,41.739-31.298,86.591-31.298,134.557c0,41.115,7.784,79.899,23.361,116.342c15.572,36.443,36.907,68.212,64.004,95.31
		c27.104,27.104,58.873,48.595,95.316,64.479c36.443,15.885,75.221,23.826,116.342,23.826c41.113,0,79.892-7.942,116.334-23.826
		c36.443-15.884,68.218-37.375,95.315-64.479c27.098-27.099,48.59-58.868,64.474-95.31c15.889-36.443,23.829-75.227,23.829-116.342
		c0-48.588-11.211-94.534-33.637-137.829c-22.428-43.297-53.888-78.958-94.38-106.991c-13.705-9.345-21.96-22.117-24.761-38.315
		c-2.806-16.197,0.464-31.149,9.807-44.856c9.347-13.081,22.118-21.025,38.314-23.825
		C724.482,183.431,739.428,186.697,753.136,196.042L753.136,196.042L753.136,196.042z M512.988,540.854
		c-16.201,0-30.061-5.763-41.585-17.287c-11.525-11.526-17.288-25.388-17.288-41.587V126.893c0-16.197,5.763-30.215,17.288-42.05
		c11.525-11.837,25.386-17.753,41.585-17.753c16.817,0,30.989,5.917,42.515,17.753c11.525,11.836,17.288,25.852,17.288,42.05v355.09
		c0,16.198-5.763,30.061-17.288,41.587C543.977,535.091,529.805,540.854,512.988,540.854L512.988,540.854L512.988,540.854z"/> </g> 
    </symbol>
    <symbol id="search" viewBox="0 0 1024 1024">
        <g> <path class="st0" d="M838.84,817.181c-8.375,8.376-19.734,13.082-31.58,13.082c-11.844,0-23.205-4.706-31.579-13.082
		l-73.683-73.683l63.159-63.159l73.683,73.683C856.274,771.465,856.274,799.738,838.84,817.181L838.84,817.181z M207.295,690.864
		c-139.522-139.522-139.522-365.721,0-505.228c139.522-139.522,365.706-139.522,505.228,0
		c139.521,139.522,139.521,365.721,0,505.228C573.016,830.384,346.817,830.384,207.295,690.864L207.295,690.864z M670.426,227.747
		c-116.256-116.255-304.765-116.255-421.02,0c-116.27,116.27-116.27,304.765,0,421.02s304.764,116.27,421.02,0
		S786.682,344.003,670.426,227.747L670.426,227.747z"/> </g> 
    </symbol>
    <symbol id="sudden" viewBox="0 0 1024 1024">
        <g> <path class="st0" d="M420.594,490.752c-54.269,0.163-106.355-21.353-144.688-59.768c-38.48-38.141-60.066-90.114-59.931-144.294
		c0-54.527,21.287-105.78,59.931-144.326c38.333-38.415,90.419-59.931,144.688-59.768c54.658,0,106.042,21.222,144.687,59.768
		c38.485,38.151,60.071,90.137,59.931,144.326c0,54.495-21.287,105.781-59.931,144.294
		C526.946,469.396,474.861,490.911,420.594,490.752L420.594,490.752z M420.594,145.638
		c-77.968-0.018-141.232,63.086-141.413,141.052c0.199,77.954,63.459,141.038,141.413,141.019
		c77.953,0.018,141.213-63.065,141.412-141.019C561.826,208.724,498.561,145.62,420.594,145.638L420.594,145.638z"/> <path class="st0" d="M653.377,726.942c0-128.051-104.438-232.194-232.783-232.194c-128.379,0-232.817,104.143-232.817,232.194
		c-0.036,17.423-14.18,31.523-31.603,31.505c-17.423,0.018-31.567-14.082-31.603-31.505c-0.057-78.35,31.145-153.485,86.688-208.745
		c26.977-26.976,58.931-48.463,94.089-63.273c36.465-15.409,75.659-23.316,115.246-23.251c39.954,0,78.696,7.86,115.212,23.251
		c35.156,14.8,67.109,36.276,94.089,63.24c55.551,55.268,86.754,130.417,86.689,208.778c-0.036,17.423-14.18,31.523-31.604,31.505
		C667.558,758.465,653.413,744.365,653.377,726.942L653.377,726.942z M614.962,466.518c0-15.065,12.969-27.248,28.983-27.248
		c71.46,0,129.623-54.659,129.623-121.829c0-67.202-58.163-121.893-129.623-121.893c-16.014,0-28.983-12.183-28.983-27.215
		c0-15.064,12.969-27.248,28.983-27.248c50.107,0,97.201,18.339,132.636,51.646c35.435,33.307,54.921,77.617,54.921,124.677
		c0,47.127-19.486,91.371-54.921,124.711c-35.435,33.306-82.529,51.646-132.636,51.646
		C627.931,493.765,614.962,481.549,614.962,466.518L614.962,466.518z"/> <path class="st0" d="M886.325,725.042c-16.015,0-28.983-12.183-28.983-27.215c0-112.135-95.072-203.374-211.955-203.374
		c-15.982,0-28.951-12.183-28.951-27.215c0-15.064,12.969-27.248,28.951-27.248c36.68,0,72.213,6.943,105.65,20.599
		c31.867,12.952,60.967,31.871,85.738,55.74c24.325,23.298,43.851,51.135,57.475,81.939c13.951,31.669,21.025,65.172,21.025,99.559
		C915.275,712.892,902.307,725.042,886.325,725.042L886.325,725.042z"/> </g> 
    </symbol></svg>